<?xml version="1.0" encoding="utf-8"?>
<!-- Generator: Adobe Illustrator 16.0.0, SVG Export Plug-In . SVG Version: 6.00 Build 0)  -->
<!DOCTYPE svg PUBLIC "-//W3C//DTD SVG 1.1//EN" "http://www.w3.org/Graphics/SVG/1.1/DTD/svg11.dtd">
<svg version="1.1" id="Layer_1" xmlns="http://www.w3.org/2000/svg" xmlns:xlink="http://www.w3.org/1999/xlink" x="0px" y="0px"
	 width="213.547px" height="71.938px" viewBox="0 0 213.547 71.938" enable-background="new 0 0 213.547 71.938"
	 xml:space="preserve">
<g>
	<path fill="#FFFFFF" d="M0.49,62.685c0,4.832,3.917,8.749,8.75,8.749h195.1c4.832,0,8.749-3.917,8.749-8.749V9.317
		c0-4.833-3.917-8.75-8.749-8.75H9.239c-4.833,0-8.75,3.917-8.75,8.75V62.685z"/>
	<path fill="none" stroke="#000000" stroke-width="0.9721" d="M0.49,62.685c0,4.832,3.917,8.749,8.75,8.749h195.1
		c4.832,0,8.749-3.917,8.749-8.749V9.317c0-4.833-3.917-8.75-8.749-8.75H9.239c-4.833,0-8.75,3.917-8.75,8.75V62.685z"/>
</g>
<line fill="none" stroke="#000000" stroke-width="1.0907" x1="96.356" y1="8.104" x2="96.356" y2="65.207"/>
<g>
	<path d="M107.237,10.659h1.199l2.894,6.337h0.021v-6.337h0.924v7.679h-1.199l-2.893-6.293h-0.021v6.293h-0.925V10.659z"/>
	<path d="M115.773,12.65c1.485,0,2.256,1.122,2.256,2.882c0,1.761-0.771,2.883-2.256,2.883s-2.256-1.122-2.256-2.883
		C113.518,13.772,114.288,12.65,115.773,12.65z M115.773,17.667c0.881,0,1.287-0.727,1.287-2.135s-0.406-2.134-1.287-2.134
		c-0.88,0-1.287,0.726-1.287,2.134S114.894,17.667,115.773,17.667z"/>
	<path d="M123.133,17.304c0,0.341,0.033,0.693,0.045,1.034h-0.893l-0.032-0.825h-0.022c-0.242,0.44-0.66,0.902-1.474,0.902
		c-1.155,0-1.937-0.946-1.937-2.883c0-1.936,0.781-2.882,1.937-2.882c0.638,0,1.056,0.253,1.431,0.847h0.021v-3.41h0.924V17.304z
		 M120.977,13.398c-0.848,0-1.232,0.726-1.232,2.134s0.385,2.135,1.232,2.135s1.232-0.727,1.232-2.135
		S121.824,13.398,120.977,13.398z"/>
	<path d="M128.424,17.304c0,0.341,0.033,0.693,0.043,1.034h-0.891l-0.033-0.825h-0.021c-0.242,0.44-0.66,0.902-1.475,0.902
		c-1.154,0-1.936-0.946-1.936-2.883c0-1.936,0.781-2.882,1.936-2.882c0.639,0,1.057,0.253,1.431,0.847h0.022v-3.41h0.924V17.304z
		 M126.268,13.398c-0.848,0-1.232,0.726-1.232,2.134s0.385,2.135,1.232,2.135c0.847,0,1.232-0.727,1.232-2.135
		S127.114,13.398,126.268,13.398z"/>
	<path d="M130.732,10.417v1.1h-1.012v-1.1H130.732z M129.766,12.728h0.924v5.61h-0.924V12.728z"/>
	<path d="M132.119,13.938c0-0.407-0.033-0.814-0.045-1.21h0.892l0.033,0.88h0.022c0.297-0.683,0.77-0.957,1.595-0.957v0.913
		c-0.11-0.022-0.231-0.033-0.353-0.033c-0.715,0-1.221,0.616-1.221,1.837v2.971h-0.924V13.938z"/>
	<path d="M142.052,18.58c0,1.551-1.166,2.2-2.397,2.2c-0.474,0-1.232-0.176-1.641-0.341l0.045-0.936
		c0.396,0.265,1.033,0.484,1.54,0.484c1.134,0,1.573-0.671,1.573-1.64v-0.88h-0.021c-0.363,0.638-0.859,0.946-1.475,0.946
		c-1.155,0-1.937-0.946-1.937-2.883c0-1.936,0.781-2.882,2.035-2.882c0.562,0,1.067,0.352,1.376,0.891h0.021l0.033-0.813h0.891
		c-0.011,0.329-0.044,0.682-0.044,1.022V18.58z M139.896,17.667c0.847,0,1.232-0.727,1.232-2.135s-0.386-2.134-1.232-2.134
		s-1.231,0.726-1.231,2.134S139.049,17.667,139.896,17.667z"/>
	<path d="M143.525,13.112c0.462-0.297,1.034-0.462,1.584-0.462c0.825,0,1.32,0.352,1.496,0.527c0.242,0.242,0.484,0.584,0.484,1.376
		v2.926c0,0.33,0.021,0.66,0.044,0.858h-0.836l-0.056-0.759h-0.021c-0.253,0.429-0.715,0.836-1.573,0.836
		c-0.924,0-1.617-0.539-1.617-1.617c0-1.089,0.716-1.893,2.641-1.893h0.539v-0.253c0-0.418-0.033-0.66-0.209-0.902
		c-0.187-0.253-0.55-0.352-0.936-0.352c-0.571,0-1.122,0.23-1.44,0.583L143.525,13.112z M146.21,15.588
		c-0.165-0.022-0.396-0.022-0.649-0.022c-1.089,0-1.605,0.518-1.605,1.166c0,0.595,0.308,0.979,0.945,0.979
		c0.803,0,1.31-0.649,1.31-1.419V15.588z"/>
	<path d="M148.398,13.938c0-0.407-0.033-0.814-0.045-1.21h0.892l0.033,0.836h0.022c0.297-0.639,0.77-0.913,1.418-0.913
		c0.98,0,1.641,0.561,1.641,1.793v3.895h-0.925v-3.619c0-0.892-0.33-1.276-0.925-1.276c-0.726,0-1.188,0.506-1.188,1.518v3.378
		h-0.924V13.938z"/>
	<path d="M107.116,23.659h1.804v6.293h2.542v1.386h-4.346V23.659z"/>
	<path d="M114.904,31.866c-0.429,1.342-1.034,1.914-2.002,1.914c-0.309,0-0.748-0.055-1.045-0.143l0.055-1.288
		c0.109,0.066,0.297,0.133,0.55,0.133c0.583,0,0.858-0.649,0.858-1.145l-1.991-5.731h1.804l1.067,3.883h0.022l1.012-3.883h1.694
		L114.904,31.866z"/>
	<path d="M118.776,25.606l0.836,4.081h0.022l0.813-4.081h1.98l0.781,4.081h0.022l0.803-4.081h1.65l-1.529,5.731h-1.849l-0.935-4.191
		h-0.022l-0.88,4.191h-1.893l-1.54-5.731H118.776z"/>
	<path d="M128.896,25.518c1.76,0,2.695,1.222,2.695,2.938c0,1.738-0.936,2.971-2.695,2.971c-1.761,0-2.695-1.232-2.695-2.971
		C126.201,26.739,127.136,25.518,128.896,25.518z M128.896,30.237c0.605,0,0.891-0.659,0.891-1.782c0-1.122-0.285-1.749-0.891-1.749
		s-0.892,0.627-0.892,1.749C128.005,29.578,128.291,30.237,128.896,30.237z"/>
	<path d="M137.763,30.051c0,0.726,0.022,1.023,0.044,1.287h-1.65c-0.021-0.22-0.044-0.517-0.044-0.913h-0.022
		c-0.176,0.352-0.561,1.001-1.562,1.001c-1.288,0-2.014-1.265-2.014-3.092c0-1.54,0.572-2.816,2.014-2.816
		c0.803,0,1.265,0.419,1.474,0.936h0.022v-3.366h1.738V30.051z M135.155,30.172c0.715,0,0.869-1.034,0.869-1.694
		c0-0.913-0.165-1.771-0.869-1.771c-0.771,0-0.837,0.858-0.837,1.771C134.318,29.071,134.363,30.172,135.155,30.172z"/>
	<path d="M138.972,26.806c0-0.551-0.011-0.902-0.044-1.199h1.584c0.012,0.341,0.033,0.692,0.045,1.034h0.021
		c0.352-0.616,0.594-1.123,1.596-1.123h0.252v1.606c-0.187-0.044-0.34-0.065-0.582-0.065c-1.013,0-1.134,0.88-1.134,1.716v2.563
		h-1.738V26.806z"/>
	<path d="M143.449,25.881c0.451-0.143,1.221-0.363,1.848-0.363c2.014,0,2.476,0.837,2.476,2.112v2.091
		c0,0.847,0.011,1.232,0.044,1.617h-1.584l-0.044-0.792h-0.022c-0.076,0.352-0.748,0.88-1.572,0.88
		c-1.068,0-1.771-0.693-1.771-1.738c0-1.914,2.232-1.925,2.838-1.925h0.528c0-1.101-0.814-1.101-1.067-1.101
		c-0.439,0-0.913,0.1-1.596,0.506L143.449,25.881z M146.188,28.576c-0.693,0-1.782,0.044-1.782,1.002
		c0,0.748,0.605,0.748,0.748,0.748c0.154,0,1.034-0.022,1.034-1.42V28.576z"/>
	<path d="M153.844,28.929h-3.377c0,0.682,0.439,1.309,1.42,1.309c0.594,0,1.188-0.22,1.617-0.45l0.032,1.309
		c-0.562,0.209-1.222,0.33-1.815,0.33c-2.014,0-2.904-1.221-2.904-2.971c0-1.54,0.902-2.938,2.541-2.938
		c0.518,0,2.486,0,2.486,2.993V28.929z M152.26,27.982c0-0.727-0.187-1.408-0.902-1.408c-0.891,0-0.891,1.101-0.891,1.408H152.26z"
		/>
	<path d="M154.416,25.606h0.99v-1.178l1.693-0.539v1.717h1.123v1.221H157.1v2.63c0,0.561,0.254,0.715,0.584,0.715
		c0.242,0,0.396-0.044,0.572-0.121v1.221c-0.177,0.066-0.65,0.154-1.211,0.154c-0.902,0-1.684-0.439-1.684-1.694v-2.904h-0.945
		V25.606z"/>
	<path d="M159.146,23.087h1.738v3.366h0.022c0.197-0.638,0.836-0.936,1.463-0.936c1.266,0,1.684,0.925,1.684,2.068v3.752h-1.738
		v-3.531c0-0.716-0.319-0.902-0.672-0.902c-0.561,0-0.759,0.484-0.759,1.221v3.213h-1.738V23.087z"/>
	<path d="M173.414,25.397c-0.275-0.154-0.738-0.44-1.563-0.44c-1.211,0-1.98,0.979-1.98,2.53c0,1.496,0.869,2.509,2.014,2.509
		c0.879,0,1.396-0.33,1.572-0.407l0.066,1.606c-0.309,0.099-0.946,0.274-1.926,0.274c-2.101,0-3.575-1.573-3.575-4.005
		c0-2.816,1.893-3.938,3.454-3.938c1.145,0,1.729,0.254,2.025,0.374L173.414,25.397z"/>
	<path d="M177.461,31.866c-0.43,1.342-1.035,1.914-2.002,1.914c-0.309,0-0.748-0.055-1.046-0.143l0.056-1.288
		c0.109,0.066,0.297,0.133,0.549,0.133c0.584,0,0.859-0.649,0.859-1.145l-1.992-5.731h1.805l1.066,3.883h0.022l1.013-3.883h1.693
		L177.461,31.866z"/>
	<path d="M186.371,27.807c0-0.66-0.275-0.902-0.66-0.902c-0.518,0-0.715,0.374-0.715,0.803v3.631h-1.738v-3.531
		c0-0.727-0.319-0.902-0.605-0.902c-0.572,0-0.77,0.495-0.77,1.221v3.213h-1.738v-4.532c0-0.551-0.012-0.902-0.045-1.199h1.585
		c0.022,0.253,0.044,0.571,0.044,0.957h0.021c0.265-0.627,0.705-1.046,1.617-1.046c0.826,0,1.244,0.386,1.486,0.958
		c0.252-0.539,0.659-0.958,1.572-0.958c1.266,0,1.684,0.925,1.684,2.068v3.752h-1.738V27.807z"/>
	<path d="M189.318,26.806c0-0.551-0.011-0.902-0.044-1.199h1.585c0.01,0.341,0.032,0.692,0.043,1.034h0.022
		c0.353-0.616,0.594-1.123,1.595-1.123h0.254v1.606c-0.188-0.044-0.342-0.065-0.584-0.065c-1.012,0-1.133,0.88-1.133,1.716v2.563
		h-1.738V26.806z"/>
	<path d="M198.504,30.139c0,0.55,0.012,0.902,0.044,1.199h-1.584c-0.022-0.253-0.044-0.572-0.044-0.957h-0.021
		c-0.265,0.627-0.705,1.045-1.617,1.045c-1.266,0-1.684-0.924-1.684-2.068v-3.751h1.738v3.531c0,0.715,0.318,0.902,0.671,0.902
		c0.562,0,0.759-0.484,0.759-1.222v-3.212h1.738V30.139z"/>
	<path d="M110.406,41.77c-0.363-0.22-0.836-0.352-1.31-0.352c-0.726,0-1.199,0.495-1.199,1.145c0,0.494,0.198,0.803,1.298,1.44
		c1.188,0.683,1.584,1.354,1.584,2.233c0,1.222-0.759,2.179-2.232,2.179c-0.617,0-1.2-0.132-1.606-0.33v-1.001
		c0.44,0.264,1.012,0.495,1.463,0.495c0.869,0,1.364-0.583,1.364-1.211c0-0.594-0.154-0.935-1.188-1.562
		c-1.387-0.836-1.695-1.31-1.695-2.3c0-1.265,0.968-1.925,2.134-1.925c0.506,0,1.045,0.109,1.387,0.253V41.77z"/>
	<path d="M111.857,43.762c0-0.342-0.033-0.693-0.045-1.034h0.892l0.033,0.824h0.022c0.241-0.439,0.66-0.901,1.474-0.901
		c1.155,0,1.937,0.946,1.937,2.882c0,1.937-0.781,2.883-1.937,2.883c-0.638,0-1.056-0.253-1.431-0.848h-0.021v3.146h-0.924V43.762z
		 M114.014,47.667c0.847,0,1.232-0.727,1.232-2.135s-0.386-2.134-1.232-2.134c-0.848,0-1.232,0.726-1.232,2.134
		S113.166,47.667,114.014,47.667z"/>
	<path d="M119.217,42.65c1.484,0,2.255,1.122,2.255,2.882c0,1.761-0.771,2.883-2.255,2.883c-1.486,0-2.256-1.122-2.256-2.883
		C116.961,43.772,117.73,42.65,119.217,42.65z M119.217,47.667c0.88,0,1.287-0.727,1.287-2.135s-0.407-2.134-1.287-2.134
		c-0.881,0-1.287,0.726-1.287,2.134S118.336,47.667,119.217,47.667z"/>
	<path d="M122.537,43.938c0-0.407-0.032-0.814-0.043-1.21h0.891l0.033,0.836h0.021c0.297-0.639,0.771-0.913,1.42-0.913
		c0.979,0,1.639,0.561,1.639,1.793v3.895h-0.924v-3.619c0-0.892-0.33-1.276-0.924-1.276c-0.727,0-1.188,0.506-1.188,1.518v3.378
		h-0.925V43.938z"/>
	<path d="M127.598,47.249c0.418,0.253,0.858,0.418,1.32,0.418c0.704,0,1.067-0.363,1.067-0.792c0-0.386-0.198-0.649-0.716-0.881
		l-0.615-0.274c-0.803-0.363-1.1-0.727-1.1-1.441c0-0.924,0.715-1.628,1.804-1.628c0.462,0,0.869,0.077,1.188,0.197l-0.045,0.793
		c-0.285-0.133-0.682-0.242-1.1-0.242c-0.605,0-0.924,0.33-0.924,0.77c0,0.451,0.33,0.704,0.945,0.946l0.33,0.132
		c0.683,0.275,1.111,0.737,1.111,1.431c0,0.968-0.517,1.738-1.805,1.738c-0.582,0-1.11-0.121-1.518-0.33L127.598,47.249z"/>
	<path d="M133.891,42.65c1.484,0,2.255,1.122,2.255,2.882c0,1.761-0.771,2.883-2.255,2.883c-1.486,0-2.256-1.122-2.256-2.883
		C131.635,43.772,132.404,42.65,133.891,42.65z M133.891,47.667c0.88,0,1.287-0.727,1.287-2.135s-0.407-2.134-1.287-2.134
		c-0.881,0-1.287,0.726-1.287,2.134S133.01,47.667,133.891,47.667z"/>
	<path d="M137.211,43.938c0-0.407-0.032-0.814-0.043-1.21h0.891l0.033,0.88h0.021c0.297-0.683,0.771-0.957,1.596-0.957v0.913
		c-0.109-0.022-0.23-0.033-0.352-0.033c-0.716,0-1.222,0.616-1.222,1.837v2.971h-0.925V43.938z"/>
	<path d="M141.16,45.808c0,1.298,0.506,1.903,1.529,1.903c0.463,0,0.969-0.231,1.287-0.462l0.045,0.836
		c-0.44,0.209-1.013,0.33-1.574,0.33c-1.484,0-2.255-1.122-2.255-2.883c0-1.76,0.771-2.882,2.167-2.882
		c1.266,0,1.97,1.012,1.97,2.662v0.495H141.16z M143.404,45.104c0-1.166-0.362-1.749-1.1-1.749c-0.594,0-1.122,0.439-1.145,1.749
		H143.404z"/>
	<path d="M149.389,47.304c0,0.341,0.033,0.693,0.045,1.034h-0.893l-0.032-0.825h-0.022c-0.242,0.44-0.66,0.902-1.474,0.902
		c-1.155,0-1.937-0.946-1.937-2.883c0-1.936,0.781-2.882,1.937-2.882c0.638,0,1.056,0.253,1.431,0.847h0.021v-3.41h0.924V47.304z
		 M147.232,43.398c-0.848,0-1.232,0.726-1.232,2.134s0.385,2.135,1.232,2.135s1.232-0.727,1.232-2.135S148.08,43.398,147.232,43.398
		z"/>
	<path d="M153.193,40.087h0.925v3.41h0.022c0.373-0.594,0.791-0.847,1.43-0.847c1.155,0,1.936,0.946,1.936,2.882
		c0,1.937-0.78,2.883-1.936,2.883c-0.814,0-1.232-0.462-1.475-0.902h-0.021l-0.033,0.825h-0.891
		c0.011-0.341,0.043-0.693,0.043-1.034V40.087z M155.35,47.667c0.848,0,1.232-0.727,1.232-2.135s-0.385-2.134-1.232-2.134
		c-0.847,0-1.231,0.726-1.231,2.134S154.503,47.667,155.35,47.667z"/>
	<path d="M160.333,49.482c-0.274,0.957-0.671,1.298-1.375,1.298c-0.22,0-0.462-0.022-0.627-0.066l0.044-0.836
		c0.143,0.066,0.309,0.11,0.506,0.11c0.264,0,0.463-0.121,0.616-0.704l0.22-0.858l-1.771-5.698h0.969l1.254,4.576h0.021l1.167-4.576
		h0.924L160.333,49.482z"/>
	<path d="M111.088,55.375h-0.021l-0.957,5.963h-2.113l-1.54-7.679h1.738l0.925,5.456h0.021l0.913-5.456h2.112l0.936,5.456h0.021
		l0.99-5.456h1.584l-1.507,7.679h-2.112L111.088,55.375z"/>
	<path d="M120.977,58.929H117.6c0,0.682,0.439,1.309,1.42,1.309c0.594,0,1.188-0.22,1.617-0.45l0.032,1.309
		c-0.562,0.209-1.222,0.33-1.815,0.33c-2.014,0-2.904-1.221-2.904-2.971c0-1.54,0.902-2.938,2.541-2.938
		c0.518,0,2.486,0,2.486,2.993V58.929z M119.393,57.982c0-0.727-0.187-1.408-0.902-1.408c-0.891,0-0.891,1.101-0.891,1.408H119.393z
		"/>
	<path d="M122.055,53.087h1.738v8.251h-1.738V53.087z"/>
	<path d="M128.468,57.047c-0.462-0.187-0.892-0.308-1.397-0.308c-0.451,0-0.648,0.22-0.648,0.418c0,0.353,0.252,0.473,1.199,0.825
		c0.594,0.22,1.199,0.594,1.199,1.672c0,1.276-0.957,1.771-2.113,1.771c-0.506,0-1.275-0.055-1.881-0.275l0.044-1.342
		c0.418,0.253,0.946,0.396,1.431,0.396c0.814,0,0.869-0.286,0.869-0.539s-0.451-0.363-1.199-0.672
		c-0.605-0.253-1.199-0.736-1.199-1.76c0-0.616,0.439-1.717,2.145-1.717c0.716,0,1.31,0.133,1.596,0.231L128.468,57.047z"/>
	<path d="M129.742,53.087h1.738v3.366h0.022c0.198-0.638,0.837-0.936,1.464-0.936c1.265,0,1.683,0.925,1.683,2.068v3.752h-1.738
		v-3.531c0-0.716-0.319-0.902-0.671-0.902c-0.561,0-0.76,0.484-0.76,1.221v3.213h-1.738V53.087z"/>
	<path d="M142.118,56.938h2.706v4.125c-0.406,0.188-1.309,0.407-2.541,0.407c-1.43,0-3.664-0.726-3.664-4.016
		c0-1.881,1.057-3.928,3.983-3.928c0.901,0,1.552,0.177,2.013,0.309l-0.109,1.507c-0.385-0.176-0.969-0.429-1.76-0.429
		c-1.904,0-2.277,1.749-2.277,2.618c0,1.431,0.66,2.553,2.035,2.553c0.264,0,0.473-0.033,0.627-0.11v-1.738h-1.013V56.938z"/>
	<path d="M148.607,55.518c1.761,0,2.696,1.222,2.696,2.938c0,1.738-0.936,2.971-2.696,2.971c-1.76,0-2.695-1.232-2.695-2.971
		C145.912,56.739,146.848,55.518,148.607,55.518z M148.607,60.237c0.605,0,0.893-0.659,0.893-1.782c0-1.122-0.287-1.749-0.893-1.749
		c-0.604,0-0.891,0.627-0.891,1.749C147.717,59.578,148.003,60.237,148.607,60.237z"/>
	<path d="M151.809,55.606h1.805l1.056,4.081h0.022l1.045-4.081h1.694l-1.794,5.731h-2.046L151.809,55.606z"/>
	<path d="M162.963,58.929h-3.377c0,0.682,0.439,1.309,1.42,1.309c0.594,0,1.188-0.22,1.617-0.45l0.032,1.309
		c-0.562,0.209-1.222,0.33-1.815,0.33c-2.014,0-2.904-1.221-2.904-2.971c0-1.54,0.902-2.938,2.541-2.938
		c0.518,0,2.486,0,2.486,2.993V58.929z M161.379,57.982c0-0.727-0.187-1.408-0.902-1.408c-0.891,0-0.891,1.101-0.891,1.408H161.379z
		"/>
	<path d="M163.985,56.806c0-0.551-0.011-0.902-0.044-1.199h1.584c0.012,0.341,0.033,0.692,0.045,1.034h0.021
		c0.352-0.616,0.594-1.123,1.596-1.123h0.252v1.606c-0.187-0.044-0.34-0.065-0.582-0.065c-1.013,0-1.134,0.88-1.134,1.716v2.563
		h-1.738V56.806z"/>
	<path d="M171.433,57.807c0-0.716-0.319-0.902-0.671-0.902c-0.561,0-0.76,0.484-0.76,1.221v3.213h-1.738v-4.532
		c0-0.551-0.01-0.902-0.043-1.199h1.584c0.021,0.253,0.044,0.571,0.044,0.957h0.022c0.264-0.627,0.703-1.046,1.617-1.046
		c1.265,0,1.683,0.925,1.683,2.068v3.752h-1.738V57.807z"/>
	<path d="M180.607,57.807c0-0.66-0.275-0.902-0.66-0.902c-0.518,0-0.715,0.374-0.715,0.803v3.631h-1.738v-3.531
		c0-0.727-0.319-0.902-0.605-0.902c-0.572,0-0.77,0.495-0.77,1.221v3.213h-1.738v-4.532c0-0.551-0.012-0.902-0.045-1.199h1.585
		c0.022,0.253,0.044,0.571,0.044,0.957h0.021c0.265-0.627,0.705-1.046,1.617-1.046c0.826,0,1.244,0.386,1.486,0.958
		c0.252-0.539,0.659-0.958,1.572-0.958c1.266,0,1.684,0.925,1.684,2.068v3.752h-1.738V57.807z"/>
	<path d="M188.439,58.929h-3.378c0,0.682,0.44,1.309,1.419,1.309c0.594,0,1.188-0.22,1.617-0.45l0.033,1.309
		c-0.561,0.209-1.221,0.33-1.814,0.33c-2.014,0-2.905-1.221-2.905-2.971c0-1.54,0.902-2.938,2.542-2.938
		c0.517,0,2.486,0,2.486,2.993V58.929z M186.855,57.982c0-0.727-0.188-1.408-0.902-1.408c-0.892,0-0.892,1.101-0.892,1.408H186.855z
		"/>
	<path d="M192.63,57.807c0-0.716-0.319-0.902-0.671-0.902c-0.561,0-0.76,0.484-0.76,1.221v3.213h-1.738v-4.532
		c0-0.551-0.01-0.902-0.043-1.199h1.584c0.021,0.253,0.044,0.571,0.044,0.957h0.022c0.264-0.627,0.703-1.046,1.617-1.046
		c1.265,0,1.683,0.925,1.683,2.068v3.752h-1.738V57.807z"/>
	<path d="M195.126,55.606h0.99v-1.178l1.694-0.539v1.717h1.122v1.221h-1.122v2.63c0,0.561,0.253,0.715,0.583,0.715
		c0.242,0,0.396-0.044,0.572-0.121v1.221c-0.177,0.066-0.649,0.154-1.21,0.154c-0.902,0-1.684-0.439-1.684-1.694v-2.904h-0.946
		V55.606z"/>
</g>
<g>
	<g>
		<path d="M14.346,29.716c0,0,0.313-0.779,0.936-1.098c0.626-0.32,1.5-0.375,2.525-0.258c0.874,0.094,2.684,0.895,5.298,3.066
			c3.639,3.021,4.939,4.891,4.966,4.801c0.229-0.733,1.104-2.153,1.104-2.153c-1.719-1.506-7.726-5.434-9.596-6.178
			C17.475,27.05,14.583,26.826,14.346,29.716z"/>
		<path d="M16.529,26.083c2.541-0.639,2.822,1.039,3.358,1.439l1.945,1.189C19.205,22.894,16.529,26.083,16.529,26.083z"/>
		<path d="M17.645,29.039c6.029,4.42,0.977,6.465,0.977,6.465c1.184,0.504,2.128,0.164,2.643-0.605
			c0.187-0.289,0.365-0.645,0.464-0.924c0.17-0.479,0.189-0.865,0.189-0.865c2.137,2.094,4.465,5.674,5.986,7.573
			c-0.462-1.842-0.105-2.67-0.249-2.842c-1.815-2.182-2.422-2.963-3.609-4.282C20.456,29.591,17.645,29.039,17.645,29.039"/>
	</g>
	<path d="M42.638,28.615c-0.283-0.729-0.191-2.82-0.111-3.199c0.3-0.803,0.57-1.59,0.734-2.338l0.133,0.068l0.946,0.594
		c-0.394-0.492-0.769-1.787-0.966-2.57c-0.016-0.101-0.035-0.206-0.063-0.305c-0.414-1.679-1.262-2.66-1.262-2.66
		s0.62,1.602,0.41,2.898c-0.205,2.709-4.049,5.814-3.182,10.561c0.48,2.623,3.105,4.711,3.105,4.711s-0.836-1.727-1.427-4.985
		c-0.235-1.283,0.181-2.287,0.75-3.826l0.21,0.197L42.638,28.615z"/>
	<path d="M69.167,10.079c0,0-6.816,1.101-10.188,2.183c-3.378,1.081-8.301,3.209-10.531,5.999c-2.23,2.792-0.354,7.216-0.922,10.161
		c-0.57,2.947-4.942,5.938-4.942,5.938s5.087-1.303,6.962-5.402c1.379-3.012-0.372-5.107,1.742-9.76
		C53.403,14.55,69.167,10.079,69.167,10.079z"/>
	<path d="M69.346,10.407c0,0-5.627,1.743-7.399,7.239l2.52-0.559C64.466,17.087,64.501,13.661,69.346,10.407z"/>
	<path d="M78.256,18.013c0,0-8.859-1.771-17.567,0.787c-8.709,2.555-7.484,7.105-7.579,9.641c-0.089,2.539-2.239,8.167-9.903,7.424
		c0,0,4.543,2.482,9.604-1.598c5.059-4.08,1.529-9.025,5.6-11.381C62.478,20.531,65.631,18.574,78.256,18.013z"/>
	<path d="M56.182,30.599c0,0,3.462,0.484,5.501,2.863c0,0-2.79-2.162-5.959-1.605C55.724,31.857,56.025,31.232,56.182,30.599z"/>
	<path d="M71.155,26.822c0,0-8.361,0.197-8.445,7.225C62.556,33.785,58.116,26.037,71.155,26.822z"/>
	<path d="M77.648,18.458L77.648,18.458c-8.419,1.733-6.493,8.368-6.493,8.368l0,0C66.872,18.31,77.648,18.458,77.648,18.458z"/>
	<path d="M54.296,40.289c2.199-5.924,8.145-6.163,8.362-6.17c-6.323-1.242-7.933,1.954-8.302,4.198
		c-5.406-1.055-10.03-1.164-10.03-1.164C50.825,38.061,54.296,40.289,54.296,40.289z"/>
	<path d="M20.157,57.906c0,0,1.335-0.723,2.897-0.572c0.96,0.092,2.819-0.604,2.819-0.604c-0.782-0.006-2.633-0.932-4.261-0.729
		C19.984,56.203,20.157,57.906,20.157,57.906z"/>
	<path d="M51.245,53.719c0,0-0.132-1.281,1.093-1.432c1.222-0.154,2.605,0.543,3.194,0.545c0,0-1.391,0.523-2.115,0.455
		C52.249,53.176,51.245,53.719,51.245,53.719z"/>
	<path d="M63.177,58.576c0,0,1.2-0.656,2.607-0.521c0.867,0.084,2.193-0.033,2.193-0.033c-0.707-0.006-1.817-1.447-3.493-1.166
		C63.03,57.098,63.177,58.576,63.177,58.576z"/>
	<path d="M70.468,26.498c-10.18-2.455-13.348-0.695-13.348-0.695s0.225-0.576,0.367-0.898c0.229-0.508,0.291-0.641,0.355-0.764
		C65.304,23.853,70.468,26.498,70.468,26.498z"/>
	<path d="M31.486,20.027c0,0-1.146-1.229-2.49-1.229c-1.942,0-3.561,2.072-5.29,2.075c-1.729,0-2.592-0.584-2.592-0.584
		s1.047,1.412,2.695,1.412c2.145,0,3.73-2.109,5.153-2.109C30.378,19.589,31.486,20.027,31.486,20.027z"/>
	<path d="M35.932,22.248c0,0,0.3,1.084,0.127,3.063c-0.167,3.389-6.798,8.057-6.717,13.674c0.046,3.357,2.522,5.361,2.522,5.361
		s-1.111-2.961-0.615-5.926c0.686-4.118,5.873-8.813,5.711-12.854C36.86,23.183,35.932,22.248,35.932,22.248z"/>
	<path d="M32.728,44.287c0,0-1.002-2.361-0.248-4.457c0.49-1.352,1.77-2.504,4.291-3.135c0,0-4.41,4.018-1.176,7.488
		c0,0-2.307,2.451-3.189,4.545c-0.879,2.092-2.802,6.479-3.436,7.5c-0.642,1.014-1.538,2.326-4.057,3.461
		c-2.789,0.242-5.843,0.709-6.043,2.865c0,0-0.539-0.539-0.49-1.9c0.051-1.361,2.309-2.883,4.671-2.803
		c2.361,0.088,4.47-0.518,5.576-3.363C29.729,51.637,32.149,44.787,32.728,44.287z"/>
	<path d="M36.489,44.516c0,0-3.598,11.027-9.901,15.076c0,0,3.841-0.547,5.025-0.064c1.187,0.486,2.403,1.293,1.249,3.135
		c0,0,2.284-1.254,1.653-3.143c-0.497-1.494-2.737-1.615-2.737-1.615s-0.646-0.279-0.271-1.232c0.374-0.957,2.784-4.131,3.167-4.705
		c0.383-0.58,3.51-5.299,3.633-5.57c0,0,2.755,0.391,4.074-2.234c1.375-2.727-1.557-5.367-1.557-5.367s1.287,2.932-0.203,4.373
		C38.858,44.871,36.489,44.516,36.489,44.516z"/>
	<path d="M39.555,47.086c0,0,1.327-0.275,1.777-0.611c0,0,0.615,0.666,3.155,0.611c0.215-0.002,0.354,0,0.436,0
		c2.82-0.35,6.258-1.359,11.658-3.611l0.586,0.963c-4.217,1.422-9.305,5.43-15.686,4.797c-0.454-0.047-2.551-0.467-2.986-0.602
		C38.761,48.275,39.555,47.086,39.555,47.086z"/>
	<path d="M57.722,52.445c-0.547,0.91-1.367,2.125-3.113,2.713c-1.896-0.039-4.175,0.428-4.328,2.045c0,0-0.402-0.408-0.37-1.422
		c0.038-1.025,1.438-2.139,3.505-2.027c1.771,0.096,2.915-0.639,3.682-2.58c0.522-1.305-0.033-4.105,0.668-5.881
		c0,0,0.955,0.738,1.377,1.09c0,0,0.034-0.012-0.168,0.473C58.315,48.426,58.628,50.695,57.722,52.445z"/>
	<path d="M60.412,46.971c0,0,0.542,0.369,1.065,0.652c-0.435,1.053-0.575,1.719-0.658,1.939c-0.182,0.498-0.78,2.512-1.063,3.229
		c-0.283,0.713,0.199,0.92,0.199,0.92s1.684,0.096,2.055,1.215c0.475,1.416-1.234,2.354-1.234,2.354
		c0.86-1.377-0.049-1.984-0.939-2.348c-0.89-0.361-3.496,0.047-3.496,0.047C59.076,53.482,59.972,48.004,60.412,46.971z"/>
	<path d="M70.765,58.131c0,0,0.729,1.52,0.313,2.078c-1.653,0.049-2.778-0.002-5.219,0.246c-2.259,0.23-3.721,0.379-3.898,2.322
		c0,0-0.488-0.488-0.445-1.715c0.046-1.225,2.082-2.592,4.211-2.514c0,0,2.665,0.047,2.965-0.111c0.637-0.34-0.984-3.441-1.26-4
		c-2.363-4.727-2.305-6.258-2.398-6.51c0,0-6.611-1.238-8.238-5.742c5.25,4.465,9.596,4.426,9.596,4.426
		C66.939,48.754,69.197,55.096,70.765,58.131z"/>
	<path d="M72.478,33.283c0.688-0.021,1.268-0.014,1.92,0.029c2.871-6.133,7.761-12.48,7.761-16.225c0-2.418-1.664-4.043-1.664-4.043
		l-0.283,0.91c0,0-1.349-3.09-2.345-3.869l0.033,0.02c0,0,3.104,1.236,4.165,2.098v-0.018l-0.786,0.206H81.25
		c1.979,1.83,1.868,4.732,1.868,4.732c0.16,4.454-4.663,9.569-7.457,16.298c6.29,0.783,10.684,4.696,10.684,8.954
		c0,5.967-3.649,8.064-6.967,8.109c-1.172,0.012-2.469-0.174-3.987-1.072c-1.77-1.047-3.248-2.994-3.248-6.787
		c0-3.717,0.866-6.025,1.354-7.329l-0.013-0.014c-1.508,0.055-2.994,0.234-4.289,0.504c0,0-1.17,0.348-1.699,0.51
		c1.405,0.822,2.781,2.16,3.264,4.256c0.305,1.5,0.162,3.41-0.582,5.84c-0.159,2.379,0.877,5.91,1.68,8.535l0.901,2.398
		c0.48,1.061,1.225,1.359,1.225,1.359s1.843,0.27,2.36,1.387c0.693,1.486-0.494,2.244-0.494,2.244
		c0.426-1.787-1.121-1.982-2.033-2.117l-0.075-0.01c-0.894-0.131-1.487-0.053-1.487-0.053c0.114-0.605-1.045-3.834-0.965-3.621
		c0,0-1.486-4.271-2.113-6.148c-0.652-1.936-1.095-4.68-1.095-4.68s4.46-7.432-5.516-10.786c0,0,0.701-0.072,1.243-0.004
		c1.125-0.441,2.582-0.746,2.582-0.746C68.164,33.671,70.163,33.359,72.478,33.283z M74.956,35.292
		c-0.813,2.413-1.313,5.024-1.214,7.875c0.09,2.611,1.78,6.238,5.895,5.871c2.14-0.188,3.479-1.576,4.167-2.979
		c0.809-1.652,0.756-3.35,0.756-3.35s0.053-2.697-2.533-4.988C80.608,36.428,78.42,35.433,74.956,35.292"/>
	<path d="M30.854,16.11c0,0-3.449-1.101-5.591,0.647l1.127,1.945c0,0,3.272-2.67,5.692,1.162c0,0-1.803,2.357-5.609,1.693
		c0,0,1.037,1.783,3.561,1.768c2.527-0.016,4.984-2.557,5.774-1.7c0,0-0.266-3.618,4.146-4.895c0,0,1.01,0.821,1.189,1.284
		c0,0,1.449-1.142,1.371-3.939c-0.078-2.799-1.656-4.071-2.221-4.548c0,0,0.332,1.671-0.41,3.228
		c-0.432,0.905-1.383,2.037-2.84,2.079c0,0-1.197,0.021-1.994-0.22C34.257,14.373,31.098,13.31,30.854,16.11z M34.7,15.879
		c0,0-1.052,1.811-2.688,0.759c0,0,0.037-1.078,0.965-0.975C33.905,15.768,33.783,16.148,34.7,15.879z"/>
</g>
</svg>
