<svg id="Layer_1" data-name="Layer 1" xmlns="http://www.w3.org/2000/svg" viewBox="0 0 812.45 124.52"><defs><style>.cls-1{fill:#ee3124;}.cls-2{fill:#fff;}.cls-3{fill:#231f20;}</style></defs><title>logo-nlw</title><polygon class="cls-1" points="0 0 133.07 0 133.07 124.52 0 124.52 0 0 0 0"/><path class="cls-2" d="M15.85,95c0,2.92-.06,5,3,6.62v.16H8.57v-.16c3.09-1.61,3.09-3.7,3.09-6.62V74.22c0-2.92,0-5-3-6.57v-.16h8.5v.05a3.17,3.17,0,0,0,.88,1.3l.81,1L40.15,94V74.22c0-2.92.06-5-3-6.57v-.16H47.37v.16c-3,1.56-3,3.65-3,6.57v29.24c-4.14-1.25-5.94-3-8.51-5.94l-20-22.68V95Z"/><path class="cls-2" d="M66.4,98a15.41,15.41,0,0,0,10.31-3.18h.17l-3,6.93H49.91v-.16c3-.94,2.62-4.8,2.62-7.14V74.84c0-2.4.35-6.2-2.62-7.19v-.16H61v.16c-3,1-2.57,4.84-2.57,7.19V97.57L66.4,98Z"/><path class="cls-2" d="M90.36,103.36c-5.3-3.44-5.82-3.08-7.75-8.45L75.74,75.68c-1-2.87-1.92-6.25-4.83-8v-.16h8.51a8.2,8.2,0,0,0,.7,3.75l8.68,24.24,6.81-19.81c1.11-3.18,2.27-6.57-.93-8v-.16h8.21c-.35,1.3.06,3,.87,5.26l8.1,22.57,6.59-19.08c1-3,3-7.19-1.58-8.6v-.16h9l-12.29,35.86c-5.36-3.28-5.77-3-7.69-8.39L99.45,77l-9.09,26.33Z"/><path class="cls-2" d="M26.21,51.48A15.44,15.44,0,0,0,36.52,48.3h.17l-3,6.92H9.73v-.16c3-.93,2.62-4.79,2.62-7.13V28.32c0-2.4.35-6.19-2.62-7.18V21H20.85v.16c-3,1-2.56,4.84-2.56,7.18V51l7.92.47Z"/><path class="cls-2" d="M79.07,27H78.9c-2.39-2.4-6.82-3.13-10.37-3.13-9.09,0-16,5.31-16,13.69S60,52.31,69.17,52.31a32.81,32.81,0,0,0,8.1-1V43.83c0-2.4-.06-4.95-2.68-5.88v-.16H83.5v.16a5.59,5.59,0,0,0-.29,2.24v12a5.3,5.3,0,0,0,.29,2.34,83.71,83.71,0,0,1-13.92,1.56c-14.91,0-23.71-7.29-23.71-17.75,0-11.18,10-18.16,24.06-18.16a48.93,48.93,0,0,1,9.14.88v6Z"/><path class="cls-2" d="M121.32,27.43a22,22,0,0,0-10.78-3c-8,0-13.63,5.26-13.63,12.81a14.35,14.35,0,0,0,14.8,14.47,28,28,0,0,0,12.41-3.28h.17l-3,6a22.81,22.81,0,0,1-8.8,1.56c-13.75,0-22.25-6.87-22.25-18,0-10.78,8.51-17.91,20.45-17.91a51.84,51.84,0,0,1,10.6,1.3v6Z"/><path class="cls-2" d="M34.51,40.75a8.22,8.22,0,0,0,5.92-2h.1l-1.74,4.45H25v-.1c1.71-.6,1.51-3.07,1.51-4.58V25.87c0-1.54.2-4-1.51-4.62v-.1h6.39v.1c-1.71.64-1.47,3.11-1.47,4.62V40.45l4.55.3Z"/><path class="cls-3" d="M157.07,55.05V21.94h6.72V49.21H174.3v5.84Z"/><path class="cls-3" d="M177,55.05V21.94h6.72V49.21h10.52v5.84Z"/><path class="cls-3" d="M205.41,41.71V55.05h-6.23V41.71L190,21.94h7.11l5.16,12.66,5.16-12.66h7.06Z"/><path class="cls-3" d="M216.85,21.94h19.67v5.84h-13v10h10.22v5.84H223.57V55.05h-6.72Z"/><path class="cls-3" d="M251.46,44H246.4V55.05h-6.72V21.94h11.2c7.06,0,11.05,2.78,11.05,10.91,0,5.6-1.75,8.28-4.29,9.69l5,12.51h-7Zm-.58-16.31H246.4V38.25h4.48c2.92,0,4.14-1.66,4.14-5.4S253.8,27.69,250.88,27.69Z"/><path class="cls-3" d="M279,36.65h9.59V54.76s-7.3.88-11,.88c-9.79,0-12.61-7.21-12.61-17.48,0-11.2,3.6-16.8,13.1-16.8a44.55,44.55,0,0,1,10.47,1.31l-.2,5.16s-5.84-.63-9.59-.63c-5.75,0-6.87,4.63-6.87,11,0,6.91,1,11.64,6.67,11.64,1.17,0,3.26-.19,3.26-.19V42.2H279Z"/><path class="cls-3" d="M293.33,21.94H313v5.84h-13v7.79h10.22v5.84H300.05v7.79h13v5.84H293.33Z"/><path class="cls-3" d="M317,55.05V21.94h6.72V49.21h10.52v5.84Z"/><path class="cls-3" d="M336.9,55.05V21.94h6.72V49.21h10.52v5.84Z"/><path class="cls-3" d="M379.45,36.65H389V54.76s-7.3.88-11,.88c-9.79,0-12.61-7.21-12.61-17.48,0-11.2,3.6-16.8,13.1-16.8A44.55,44.55,0,0,1,389,22.67l-.2,5.16s-5.84-.63-9.59-.63c-5.75,0-6.87,4.63-6.87,11,0,6.91,1,11.64,6.67,11.64,1.17,0,3.26-.19,3.26-.19V42.2h-2.87Z"/><path class="cls-3" d="M393.81,21.94h19.67v5.84h-13v7.79h10.22v5.84H400.53v7.79h13v5.84H393.81Z"/><path class="cls-3" d="M417.47,21.94H428l7.94,26h.54v-26h6.38V55.05H432.71l-8-26.44h-.54V55.05h-6.72Z"/><path class="cls-3" d="M448.29,21.94H468v5.84H455v7.79h10.22v5.84H455v7.79h13v5.84H448.29Z"/><path class="cls-3" d="M472,55.05V21.94h10.66c10.76,0,13.1,5.06,13.1,15.68,0,11.39-2.34,17.43-13.1,17.43Zm10.66-27.27h-3.94V49.21h3.94c5.84,0,6.18-4.77,6.18-11.59C488.8,31,488.46,27.78,482.61,27.78Z"/><path class="cls-3" d="M500,55.05V21.94h6.72V49.21h10.52v5.84Z"/><path class="cls-3" d="M524.33,21.94h11.78l6.82,33.11h-6.72L535,49.31h-9.54l-1.31,5.75h-6.72Zm2.24,21.52h7.25l-3.26-15.68h-.73Z"/><path class="cls-3" d="M546,21.94h19.67v5.84h-13v7.79h10.22v5.84H552.67v7.79h13v5.84H546Z"/><path class="cls-3" d="M567,21.94h21.28v5.84h-7.21V55.05h-6.72V27.78H567Z"/><path class="cls-3" d="M608,41H597.8v14h-6.72V21.94h6.72V35.19H608V21.94h6.72V55.05H608Z"/><path class="cls-3" d="M618.93,38.16c0-8.28,1.51-13,5.31-15.24a14.13,14.13,0,0,1,7.21-1.56c9.25,0,12.51,4.53,12.51,16.8,0,8.62-1.61,13.73-5.75,16a13.81,13.81,0,0,1-6.77,1.46C622.19,55.64,618.93,50.43,618.93,38.16Zm15.29,11.05C636.46,48,637,44.78,637,38.16c0-8.76-1-11-5.6-11a7.44,7.44,0,0,0-2.73.44c-2.34,1-2.87,3.85-2.87,10.52,0,8.76,1,11.64,5.6,11.64A5.87,5.87,0,0,0,634.22,49.21Z"/><path class="cls-3" d="M648.19,55.05V21.94h6.72V49.21h10.52v5.84Z"/><path class="cls-3" d="M697.55,54.56a47.23,47.23,0,0,1-8.86,1.07c-9.49,0-11.88-6.33-11.88-17.29,0-12.12,3.5-17,11.88-17a55.08,55.08,0,0,1,8.91,1.17l-.29,5.26s-5-.58-7.5-.58c-4.33,0-6.09,3-6.09,11.15,0,7.4,1.27,11.44,6.28,11.44,2.34,0,7.3-.54,7.3-.54Z"/><path class="cls-3" d="M713.67,41.71V55.05h-6.23V41.71l-9.2-19.77h7.11L710.5,34.6l5.16-12.66h7.06Z"/><path class="cls-3" d="M725.11,21.94h11.2l4.92,25.12,4.87-25.12h11.1V55.05H751V27.78h-.88l-4.82,25.81H737l-4.77-25.81h-.92V55.05h-6.23Z"/><path class="cls-3" d="M774.42,44h-5.06V55.05h-6.72V21.94h11.2c7.06,0,11.05,2.78,11.05,10.91,0,5.6-1.75,8.28-4.29,9.69l5,12.51h-7Zm-.58-16.31h-4.48V38.25h4.48c2.92,0,4.14-1.66,4.14-5.4S776.76,27.69,773.84,27.69Z"/><path class="cls-3" d="M795.75,44.39c0,3.85,1.17,5.4,4.92,5.4s4.92-1.56,4.92-5.4V21.94h6.72V43.8c0,8.28-3.36,11.83-11.64,11.83S789,52.08,789,43.8V21.94h6.72Z"/><path class="cls-3" d="M154.44,69.72h21.28v5.84h-7.21v27.27h-6.72V75.57h-7.35Z"/><path class="cls-3" d="M195.67,88.81H185.5v14h-6.72V69.72h6.72V83h10.18V69.72h6.72v33.11h-6.72Z"/><path class="cls-3" d="M208.09,69.72h19.67v5.84h-13v7.79H225V89.2H214.81V97h13v5.84H208.09Z"/><path class="cls-3" d="M242.17,69.72h10.52l7.94,26h.54v-26h6.38v33.11H257.41l-8-26.44h-.54v26.44h-6.72Z"/><path class="cls-3" d="M277.66,69.72h11.78l6.82,33.11h-6.72l-1.22-5.75h-9.54l-1.31,5.75h-6.72Zm2.24,21.52h7.25l-3.26-15.68h-.73Z"/><path class="cls-3" d="M295.33,69.72H316.6v5.84H309.4v27.27h-6.72V75.57h-7.35Z"/><path class="cls-3" d="M319.67,69.72h6.72v33.11h-6.72Z"/><path class="cls-3" d="M330.87,85.94c0-8.28,1.51-13,5.31-15.24a14.13,14.13,0,0,1,7.21-1.56c9.25,0,12.51,4.53,12.51,16.8,0,8.62-1.61,13.73-5.75,16a13.81,13.81,0,0,1-6.77,1.46C334.13,103.42,330.87,98.21,330.87,85.94ZM346.15,97c2.24-1.22,2.82-4.43,2.82-11.05,0-8.76-1-11-5.6-11a7.44,7.44,0,0,0-2.73.44c-2.34,1-2.87,3.85-2.87,10.52,0,8.76,1,11.64,5.6,11.64A5.86,5.86,0,0,0,346.15,97Z"/><path class="cls-3" d="M360.37,69.72h10.52l7.94,26h.54v-26h6.38v33.11H375.61l-8-26.44h-.54v26.44h-6.72Z"/><path class="cls-3" d="M395.86,69.72h11.78l6.82,33.11h-6.72l-1.22-5.75H397l-1.31,5.75h-6.72Zm2.24,21.52h7.25l-3.26-15.68h-.73Z"/><path class="cls-3" d="M417.72,102.83V69.72h6.72V97H435v5.84Z"/><path class="cls-3" d="M448,102.83V69.72h6.72V97h10.52v5.84Z"/><path class="cls-3" d="M468.2,69.72h6.72v33.11H468.2Z"/><path class="cls-3" d="M492,69.72c6.09,0,10.52,2.48,10.52,8.57,0,4.09-1.27,5.65-3.7,7.3,3,1.51,4.29,3.6,4.29,7.69,0,6.82-4.09,9.54-10.91,9.54H480.62V69.72Zm-4.67,5.75v7.69H492c2.48,0,3.65-1.51,3.65-4s-1.17-3.7-3.65-3.7Zm0,13.29v8.33h4.77c2.82,0,4.09-1.46,4.09-4.28s-1.27-4-4.09-4Z"/><path class="cls-3" d="M519.22,91.78h-5.06v11.05h-6.72V69.72h11.2c7.06,0,11.05,2.78,11.05,10.91,0,5.6-1.75,8.28-4.29,9.69l5,12.51h-7Zm-.58-16.31h-4.48V86h4.48c2.92,0,4.14-1.66,4.14-5.4S521.56,75.47,518.64,75.47Z"/><path class="cls-3" d="M538.45,69.72h11.78l6.82,33.11h-6.72l-1.22-5.75h-9.54l-1.31,5.75h-6.72Zm2.24,21.52h7.25l-3.26-15.68H544Z"/><path class="cls-3" d="M572.1,91.78H567v11.05h-6.72V69.72h11.2c7.06,0,11.05,2.78,11.05,10.91,0,5.6-1.75,8.28-4.29,9.69l5,12.51h-7Zm-.58-16.31H567V86h4.48c2.92,0,4.14-1.66,4.14-5.4S574.43,75.47,571.51,75.47Z"/><path class="cls-3" d="M598.39,89.49v13.34h-6.23V89.49L583,69.72h7.11l5.16,12.66,5.16-12.66h7.06Z"/><path class="cls-3" d="M619,85.94c0-8.28,1.51-13,5.31-15.24a14.13,14.13,0,0,1,7.21-1.56c9.25,0,12.51,4.53,12.51,16.8,0,8.62-1.61,13.73-5.75,16a13.81,13.81,0,0,1-6.77,1.46C622.29,103.42,619,98.21,619,85.94ZM634.31,97c2.24-1.22,2.82-4.43,2.82-11.05,0-8.76-1-11-5.6-11a7.44,7.44,0,0,0-2.73.44c-2.34,1-2.87,3.85-2.87,10.52,0,8.76,1,11.64,5.6,11.64A5.86,5.86,0,0,0,634.31,97Z"/><path class="cls-3" d="M648.53,69.72H668.2v5.84h-13v10h10.22v5.84H655.25v11.44h-6.72Z"/><path class="cls-3" d="M686.11,69.72l4.48,26.93h.68L696,70.21h7.25L708,96.65h.73l4.48-26.93h6.62l-6.28,33.11h-9.88L699.6,78.68l-3.94,24.15h-9.88l-6.28-33.11Z"/><path class="cls-3" d="M726.57,69.72h11.78l6.82,33.11h-6.72l-1.22-5.75h-9.54l-1.31,5.75h-6.72Zm2.24,21.52h7.25L732.8,75.57h-.73Z"/><path class="cls-3" d="M748.43,102.83V69.72h6.72V97h10.52v5.84Z"/><path class="cls-3" d="M768.58,69.72h19.67v5.84h-13v7.79h10.22V89.2H775.3V97h13v5.84H768.58Z"/><path class="cls-3" d="M811,75.62s-5.55-.63-8.47-.63c-3.55,0-4.87.83-4.87,3.41,0,2.34,1.12,2.87,5.89,4.58,6.48,2.29,8.91,3.85,8.91,10.18,0,7.16-3.51,10.27-11.15,10.27a56.07,56.07,0,0,1-9.69-1.12l.34-5.4s6.43.68,9.35.68,4.33-.92,4.33-3.85-1.27-3.51-5.6-4.92c-6.43-2.09-9.2-4.48-9.2-9.45,0-7.16,3.55-10.23,11.2-10.23a44.72,44.72,0,0,1,9.25,1.22Z"/></svg>