<svg id="Layer_1" data-name="Layer 1" xmlns="http://www.w3.org/2000/svg" viewBox="0 0 117.3 83.38"><title>nlw-outline</title><path d="M7.28,74.92c0,2.92-.06,5,3,6.62v.16H0v-.16c3.09-1.61,3.09-3.7,3.09-6.62V54.14c0-2.92,0-5-3-6.57v-.16h8.5v.05a3.17,3.17,0,0,0,.88,1.3l.81,1,21.3,24.16V54.14c0-2.92.06-5-3-6.57v-.16H38.8v.16c-3,1.56-3,3.65-3,6.57V83.38c-4.14-1.25-5.94-3-8.51-5.94l-20-22.68V74.92Z"/><path d="M57.83,77.92a15.41,15.41,0,0,0,10.31-3.18h.17l-3,6.93h-24v-.16c3-.94,2.62-4.8,2.62-7.14V54.76c0-2.4.35-6.2-2.62-7.19v-.16H52.43v.16c-3,1-2.57,4.84-2.57,7.19V77.49Z"/><path d="M81.79,83.28C76.49,79.84,76,80.2,74,74.83L67.17,55.6c-1-2.87-1.92-6.25-4.83-8v-.16h8.51a8.2,8.2,0,0,0,.7,3.75l8.68,24.24L87,55.62c1.11-3.18,2.27-6.57-.93-8v-.16h8.21c-.35,1.3.06,3,.87,5.26l8.1,22.57,6.59-19.08c1-3,3-7.19-1.58-8.6v-.16h9L105,83.31c-5.36-3.28-5.77-3-7.69-8.39l-6.44-18L81.79,83.25Z"/><path d="M17.64,31.4A15.44,15.44,0,0,0,28,28.22h.17l-3,6.92h-24V35c3-.93,2.62-4.79,2.62-7.13V8.24c0-2.4.35-6.19-2.62-7.18V.92H12.28v.16c-3,1-2.56,4.84-2.56,7.18V30.92l7.92.47Z"/><path d="M70.5,6.92h-.17C67.94,4.52,63.51,3.79,60,3.79c-9.09,0-16,5.31-16,13.69S51.43,32.23,60.6,32.23a32.81,32.81,0,0,0,8.1-1V23.75c0-2.4-.06-5-2.68-5.88v-.16h8.91v.16a5.59,5.59,0,0,0-.29,2.24v12a5.3,5.3,0,0,0,.29,2.34A83.71,83.71,0,0,1,61,36C46.1,36,37.3,28.72,37.3,18.26,37.3,7.08,47.3.1,61.36.1A48.93,48.93,0,0,1,70.5,1V6.92Z"/><path d="M112.75,7.35a22,22,0,0,0-10.78-3c-8,0-13.63,5.26-13.63,12.81a14.35,14.35,0,0,0,14.22,14.48h.58a28,28,0,0,0,12.41-3.28h.17l-3,6a22.81,22.81,0,0,1-8.8,1.56c-13.75,0-22.25-6.87-22.25-18C81.67,7.13,90.18,0,102.12,0a51.84,51.84,0,0,1,10.6,1.3v6Z"/><path d="M25.94,20.67a8.22,8.22,0,0,0,5.92-2H32l-1.74,4.45H16.43V23c1.71-.6,1.51-3.07,1.51-4.58V5.79c0-1.54.2-4-1.51-4.62v-.1h6.39v.1c-1.71.64-1.47,3.11-1.47,4.62V20.37l4.55.3Z"/></svg>